<?xml version="1.0" encoding="UTF-8"?><svg xmlns="http://www.w3.org/2000/svg" viewBox="0 0 1080 1080"><defs><style>.d{fill:#fff;}.e{fill:#3d42f5;}</style></defs><g id="a"/><g id="b"><g id="c"><g><circle class="d" cx="540" cy="540" r="540"/><g><path class="e" d="M370.8,831.84h-81.11c0-94.92,49.39-154.69,89.08-202.72,30.73-37.19,49.56-61.39,49.56-89.12s-18.83-51.93-49.56-89.12c-39.69-48.03-89.08-107.8-89.08-202.72h81.11c0,65.74,34.24,107.18,70.5,151.06,33.5,40.54,68.14,82.47,68.14,140.78s-34.64,100.24-68.14,140.78c-36.25,43.87-70.5,85.31-70.5,151.06Z"/><path class="e" d="M790.31,831.84h-81.11c0-65.74-34.24-107.18-70.5-151.06-33.5-40.54-68.14-82.47-68.14-140.78s34.64-100.24,68.14-140.78c36.25-43.88,70.5-85.32,70.5-151.06h81.11c0,94.92-49.39,154.69-89.08,202.72-30.73,37.19-49.56,61.39-49.56,89.12s18.83,51.93,49.56,89.12c39.69,48.03,89.08,107.8,89.08,202.72Z"/></g></g></g></g></svg>