<?xml version="1.0" encoding="UTF-8"?><svg xmlns="http://www.w3.org/2000/svg" viewBox="0 0 2000 349.91"><defs><style>.d{fill:#fff;}</style></defs><g id="a"/><g id="b"><g id="c"><g><path class="d" d="M42.53,349.91H0c0-49.78,25.9-81.13,46.72-106.31,16.11-19.5,25.99-32.19,25.99-46.74s-9.88-27.23-25.99-46.73C25.9,124.94,0,93.59,0,43.81H42.53c0,34.48,17.96,56.21,36.97,79.22,17.57,21.26,35.74,43.25,35.74,73.83s-18.17,52.57-35.74,73.83c-19.01,23.01-36.97,44.74-36.97,79.22Z"/><path class="d" d="M262.54,349.91h-42.53c0-34.48-17.96-56.21-36.97-79.22-17.57-21.26-35.74-43.25-35.74-73.83s18.17-52.57,35.74-73.83c19.01-23.01,36.97-44.74,36.97-79.22h42.53c0,49.78-25.9,81.13-46.72,106.31-16.11,19.5-25.99,32.19-25.99,46.73s9.88,27.23,25.99,46.74c20.81,25.19,46.72,56.54,46.72,106.31Z"/><g><path class="d" d="M265.99,195.86c0-70.92,39.58-119.16,118.75-119.16s118.75,48.24,118.75,119.16-39.58,119.17-118.75,119.17-118.75-48.24-118.75-119.17Zm192.97,0c0-47.42-22.27-77.93-74.22-77.93s-74.22,30.51-74.22,77.93,21.85,78.35,74.22,78.35,74.22-30.93,74.22-78.35Z"/><path class="d" d="M524.01,206.99V81.64h42.06v125.35c0,45.77,23.09,67.21,62.26,67.21s62.26-21.44,62.26-67.21V81.64h42.47v125.35c0,68.86-39.17,108.03-104.73,108.03s-104.32-39.17-104.32-108.03Z"/><path class="d" d="M758.9,81.64h36.29l3.3,42.06c16.91-35.46,42.88-47.42,73.4-47.42,7.54,17.99,20.2,47.83,20.2,47.83-11.55-3.3-23.09-3.71-28.04-3.71-40,0-63.09,30.51-63.09,75.87v113.81h-42.06V81.64Z"/><path class="d" d="M1203.37,81.64h46.18l-99.37,228.44h-30.51l-47.42-119.17-47.42,119.17h-30.93l-99.37-228.44h46.59l48.24,122.05c7.01,17.32,13.19,33.81,19.79,49.07,6.19-15.26,12.37-31.75,18.14-48.66l23.09-67.21-21.85-55.25h46.18l42.47,122.46c5.77,16.91,11.96,33.4,18.14,48.66,6.18-15.26,12.37-31.34,19.38-49.07l48.66-122.05Z"/><path class="d" d="M1243.75,195.86c0-70.92,36.74-119.16,110.22-119.16s110.22,48.24,110.22,119.16-36.74,119.17-110.22,119.17-110.22-48.24-110.22-119.17Zm179.11,0c0-47.42-20.67-77.93-68.89-77.93s-68.89,30.51-68.89,77.93,20.28,78.35,68.89,78.35,68.89-30.93,68.89-78.35Z"/><path class="d" d="M1787.24,310.08V11.55l42.06-11.55V122.05c14.43-30.1,42.88-45.36,80.4-45.36,52.37,0,90.3,33.81,90.3,102.26v131.12h-42.06V178.96c0-41.65-21.85-61.44-59.38-61.44-44.12,0-69.27,30.51-69.27,77.52v115.04h-42.06Z"/><path class="d" d="M1764.35,76.27v44.95h-74.69v110.51c0,30.52,11.56,42.89,40.43,42.89,12.76,0,22.67-1.65,33.39-6.2v37.94c-9.07,5.36-27.22,8.65-41.66,8.65-44.53,0-74.63-24.32-74.63-82.86V121.23s-53.18-5.36-80.94,7.07c-29.32,13.13-33.31,44.67-33.31,67.98v113.8h-42.05V81.64h36.27l3.29,42.08c15.04-37.71,52.81-47.02,117.84-47.44l9.2-44.53h32.16v44.53h74.69Z"/></g></g></g></g></svg>