<?xml version="1.0" encoding="UTF-8"?><svg xmlns="http://www.w3.org/2000/svg" viewBox="0 0 1080 1080"><defs><style>.d{fill:#fff;}</style></defs><g id="a"/><g id="b"><g id="c"><path class="d" d="M540,0C241.77,0,0,241.77,0,540s241.77,540,540,540,540-241.77,540-540S838.24,0,540,0Zm-98.71,680.78c-36.25,43.87-70.49,85.32-70.49,151.06h-81.11c0-94.92,49.39-154.69,89.08-202.72,30.73-37.19,49.56-61.39,49.56-89.12s-18.83-51.93-49.56-89.11c-39.69-48.03-89.08-107.81-89.08-202.73h81.11c0,65.74,34.24,107.19,70.49,151.06,33.51,40.55,68.15,82.47,68.15,140.78s-34.64,100.24-68.15,140.78Zm259.94-51.66c39.69,48.03,89.08,107.8,89.08,202.72h-81.1c0-65.74-34.25-107.19-70.5-151.06-33.5-40.54-68.15-82.46-68.15-140.78s34.65-100.24,68.15-140.78c36.25-43.87,70.5-85.32,70.5-151.06h81.1c0,94.92-49.39,154.7-89.08,202.73-30.73,37.18-49.56,61.38-49.56,89.11s18.83,51.93,49.56,89.12Z"/></g></g></svg>